<svg width="15" height="15" viewBox="0 0 15 15" fill="none" xmlns="http://www.w3.org/2000/svg">
<mask id="mask0" mask-type="alpha" maskUnits="userSpaceOnUse" x="0" y="0" width="15" height="15">
<rect width="15" height="15" fill="#C4C4C4"/>
</mask>
<g mask="url(#mask0)">
<path d="M14.0482 14.75H0.951777C0.542258 14.75 0.25 14.4415 0.25 14.1168V2.88315C0.25 2.54705 0.554572 2.25 0.951777 2.25H14.0482C14.4577 2.25 14.75 2.55848 14.75 2.88315V14.0992C14.75 14.4446 14.4545 14.75 14.0482 14.75Z" fill="white" stroke="#567FEA" stroke-width="0.5"/>
<path d="M15 4V1.98039C15 1.43137 14.5812 1 14.0482 1H0.951777C0.418782 1 0 1.43137 0 1.98039V4H15Z" fill="#567FEA"/>
<rect x="2" width="2" height="2.56" rx="1" fill="#567FEA"/>
<rect x="11" width="2" height="2.56" rx="1" fill="#567FEA"/>
<rect x="2" y="6" width="3" height="3" rx="0.8" fill="#567FEA"/>
<rect x="6" y="6" width="3" height="3" rx="0.8" fill="#567FEA"/>
<rect x="2" y="10" width="3" height="3" rx="0.8" fill="#567FEA"/>
<rect x="6" y="10" width="3" height="3" rx="0.8" fill="#567FEA"/>
<rect x="10" y="6" width="3" height="3" rx="0.8" fill="#567FEA"/>
<rect x="10" y="10" width="3" height="3" rx="0.8" fill="#567FEA"/>
</g>
</svg>
