<svg width="80" height="80" viewBox="0 0 80 80" fill="none" xmlns="http://www.w3.org/2000/svg">
<circle opacity="0.5" cx="40" cy="40" r="40" fill="url(#paint0_linear)"/>
<mask id="mask0" mask-type="alpha" maskUnits="userSpaceOnUse" x="15" y="17" width="50" height="50">
<rect x="15" y="17" width="50" height="50" fill="#C4C4C4"/>
</mask>
<g mask="url(#mask0)">
<path d="M64.636 26.2632C64.3392 25.9069 63.8986 25.7007 63.4361 25.7007H25.4994C25.015 25.7007 24.5556 25.9257 24.2588 26.31C23.965 26.6975 23.865 27.1975 23.99 27.6663L28.9899 46.3534C29.1743 47.0409 29.793 47.5127 30.4993 47.5127C30.5243 47.5127 30.5524 47.5127 30.5774 47.5096L60.3893 46.0096C61.1111 45.9721 61.7174 45.444 61.8486 44.7315L64.9735 27.5444C65.0579 27.085 64.9329 26.6163 64.636 26.2632Z" fill="#4CE1C6"/>
<rect x="44.1523" y="30.6255" width="3.23945" height="12.3099" rx="1.61973" fill="white"/>
<rect x="39.6182" y="38.3999" width="3.23945" height="12.3099" rx="1.61972" transform="rotate(-90 39.6182 38.3999)" fill="white"/>
<path d="M35.9252 60.1691C37.9647 60.1691 39.6181 58.5157 39.6181 56.4762C39.6181 54.4366 37.9647 52.7832 35.9252 52.7832C33.8856 52.7832 32.2322 54.4366 32.2322 56.4762C32.2322 58.5157 33.8856 60.1691 35.9252 60.1691Z" fill="#4CE1C6"/>
<path d="M50.6969 60.1691C52.7365 60.1691 54.3899 58.5157 54.3899 56.4762C54.3899 54.4366 52.7365 52.7832 50.6969 52.7832C48.6573 52.7832 47.0039 54.4366 47.0039 56.4762C47.0039 58.5157 48.6573 60.1691 50.6969 60.1691Z" fill="#4CE1C6"/>
<path d="M15 20.7778H22.2244C22.6815 20.7778 23.0805 21.0878 23.1934 21.5308L30.8109 51.4151C30.9239 51.8581 31.3228 52.1681 31.78 52.1681H56.2382" stroke="#4CE1C6" stroke-width="2" stroke-linecap="round"/>
</g>
<defs>
<linearGradient id="paint0_linear" x1="-13.0233" y1="12.5581" x2="106.047" y2="59.0698" gradientUnits="userSpaceOnUse">
<stop stop-color="#97E6FF"/>
<stop offset="1" stop-color="#4CE1C6" stop-opacity="0.13"/>
</linearGradient>
</defs>
</svg>
