<svg width="80" height="80" viewBox="0 0 80 80" fill="none" xmlns="http://www.w3.org/2000/svg">
<circle opacity="0.4" cx="40" cy="40" r="40" fill="url(#paint0_linear)"/>
<mask id="mask0" mask-type="alpha" maskUnits="userSpaceOnUse" x="16" y="16" width="48" height="48">
<rect x="16" y="16" width="48" height="48" fill="#C4C4C4"/>
</mask>
<g mask="url(#mask0)">
<path d="M19.75 23.3936H57.25C59.3126 23.3936 61.0001 25.081 61.0001 27.1436V31.6436C61.0001 33.7062 59.3126 35.3937 57.25 35.3937H19.75C17.6875 35.3935 16 33.706 16 31.6435V27.1435C16 25.081 17.6875 23.3936 19.75 23.3936Z" fill="#111C63"/>
<path d="M27.962 27.405L51.4371 21.18C52.2246 20.955 53.0495 21.4425 53.2745 22.2301L57.1745 36.6301C57.3995 37.4176 56.912 38.2425 56.1245 38.4675L25.562 46.605C24.7745 46.83 23.9496 46.3425 23.7246 45.5549L20.8745 34.98L27.962 27.405Z" fill="#ED4C4C"/>
<path d="M53.0878 36.1813L48.0254 37.5313C47.6129 37.6438 47.2003 37.4188 47.1254 37.0063C47.0128 36.5938 47.2379 36.1813 47.6504 36.1063L52.0004 34.9438L49.6754 26.2439L45.3254 27.4064C44.913 27.5189 44.5004 27.2938 44.4255 26.8813C44.3129 26.4689 44.538 26.0563 44.9505 25.9814L50.013 24.6314C50.4254 24.5189 50.838 24.744 50.9129 25.1564L53.6129 35.2814C53.7253 35.6938 53.5003 36.1063 53.0878 36.1813ZM32.0878 41.8439L27.0253 43.1938C26.6129 43.3064 26.2003 43.0813 26.1254 42.6688L23.4254 32.5439C23.3128 32.1314 23.5379 31.7188 23.9504 31.6439L29.0129 30.2939C29.4253 30.1814 29.8379 30.4065 29.9128 30.8189C30.0254 31.2314 29.8003 31.644 29.3878 31.7189L25.0378 32.8814L27.3628 41.5814L31.7128 40.4189C32.1252 40.3063 32.5378 40.5314 32.6127 40.9439C32.7253 41.3189 32.5003 41.7313 32.0878 41.8439Z" fill="white"/>
<path d="M16.3007 32.656C22.9756 28.831 40.9757 18.2934 40.9757 18.2934C41.6882 17.881 42.6257 18.106 43.0382 18.8185L50.5382 31.7185C50.9507 32.431 50.6882 33.3309 49.9757 33.7435L22.5256 49.4935C21.8131 49.9059 20.8757 49.6809 20.4631 48.9684C20.4631 48.9684 18.3631 44.6935 16.2631 41.0934C16.2632 32.656 16.3007 35.431 16.3007 32.656Z" fill="#E88080"/>
<path d="M46.7127 31.3055L41.4627 22.2305C41.2377 21.8555 40.7877 21.743 40.4502 21.968L35.9127 24.5929C35.5378 24.8179 35.4252 25.2679 35.6502 25.6055C35.8752 25.9804 36.3252 26.093 36.6627 25.868L40.5627 23.6179L45.0628 31.4179L41.1628 33.668C40.7878 33.893 40.6753 34.3429 40.9003 34.6805C41.1253 35.0554 41.5752 35.168 41.9128 34.943L46.4502 32.318C46.7877 32.1305 46.9376 31.6805 46.7127 31.3055ZM26.8377 41.9181L22.9377 44.1681L18.4376 36.368L22.3376 34.118C22.7126 33.893 22.8251 33.443 22.6002 33.1054C22.3752 32.7305 21.9252 32.6179 21.5876 32.8429L17.0502 35.4679C16.6752 35.6929 16.5627 36.1429 16.7877 36.4804L22.0376 45.5554C22.2626 45.9304 22.7126 46.0429 23.0501 45.818L27.5876 43.193C27.9626 42.968 28.0751 42.518 27.8501 42.1805C27.6626 41.843 27.2126 41.693 26.8377 41.9181ZM28.7502 28.6805C25.8627 30.3305 24.8877 34.0055 26.5377 36.893C28.2252 39.7805 31.8627 40.7555 34.7501 39.1055C37.6376 37.4555 38.6126 33.7805 36.9627 30.893C35.2752 28.043 31.6377 27.0305 28.7502 28.6805ZM46.7127 31.3055L41.4627 22.2305C41.2377 21.8555 40.7877 21.743 40.4502 21.968L35.9127 24.5929C35.5378 24.8179 35.4252 25.2679 35.6502 25.6055C35.8752 25.9804 36.3252 26.093 36.6627 25.868L40.5627 23.6179L45.0628 31.4179L41.1628 33.668C40.7878 33.893 40.6753 34.3429 40.9003 34.6805C41.1253 35.0554 41.5752 35.168 41.9128 34.943L46.4502 32.318C46.7877 32.1305 46.9376 31.6805 46.7127 31.3055ZM26.8377 41.9181L22.9377 44.1681L18.4376 36.368L22.3376 34.118C22.7126 33.893 22.8251 33.443 22.6002 33.1054C22.3752 32.7305 21.9252 32.6179 21.5876 32.8429L17.0502 35.4679C16.6752 35.6929 16.5627 36.1429 16.7877 36.4804L22.0376 45.5554C22.2626 45.9304 22.7126 46.0429 23.0501 45.818L27.5876 43.193C27.9626 42.968 28.0751 42.518 27.8501 42.1805C27.6626 41.843 27.2126 41.693 26.8377 41.9181ZM28.7502 28.6805C25.8627 30.3305 24.8877 34.0055 26.5377 36.893C28.2252 39.7805 31.8627 40.7555 34.7501 39.1055C37.6376 37.4555 38.6126 33.7805 36.9627 30.893C35.2752 28.043 31.6377 27.0305 28.7502 28.6805Z" fill="white"/>
<path d="M58.75 60.8936H19.75C17.6875 60.8936 16 59.2061 16 57.1436V30.1436H58.75C60.8126 30.1436 62.5001 31.8311 62.5001 33.8936V57.1437C62.5 59.2061 60.8125 60.8936 58.75 60.8936ZM19 30.1436H16V27.1436C16 28.7935 17.35 30.1436 19 30.1436Z" fill="#567FEA"/>
<path d="M62.4999 51.5185H56.5C53.6125 51.5185 51.25 49.156 51.25 46.2685C51.25 43.381 53.6125 41.0186 56.5 41.0186H62.4999C63.325 41.0186 63.9999 41.6935 63.9999 42.5186V50.0186C63.9999 50.8435 63.325 51.5185 62.4999 51.5185Z" fill="#111C63"/>
<path d="M56.5005 43.2686C58.1505 43.2686 59.5005 44.6185 59.5005 46.2686C59.5005 47.9187 58.1506 49.2686 56.5005 49.2686C54.8505 49.2686 53.5005 47.9187 53.5005 46.2686C53.5005 44.6185 54.8505 43.2686 56.5005 43.2686Z" fill="#4CE1C6"/>
<path d="M58.75 59.3936H19.75C17.6875 59.3936 16 57.7061 16 55.6436V57.1436C16 59.2061 17.6875 60.8936 19.75 60.8936H58.75C60.8126 60.8936 62.5001 59.2061 62.5001 57.1436V55.6436C62.5 57.7061 60.8125 59.3936 58.75 59.3936Z" fill="#9BB7FF"/>
<path d="M58.75 30.1436H19C17.35 30.1436 16 28.7935 16 27.1436V28.6436C16 30.2935 17.35 31.6436 19 31.6436H58.75C60.8126 31.6436 62.5001 33.3311 62.5001 35.3936V33.8936C62.5 31.8311 60.8125 30.1436 58.75 30.1436Z" fill="#9BB7FF"/>
</g>
<defs>
<linearGradient id="paint0_linear" x1="-13.0233" y1="12.5581" x2="106.047" y2="59.0698" gradientUnits="userSpaceOnUse">
<stop stop-color="#97E6FF"/>
<stop offset="1" stop-color="#4CE1C6" stop-opacity="0.13"/>
</linearGradient>
</defs>
</svg>
