<svg width="25" height="20" viewBox="0 0 25 20" fill="none" xmlns="http://www.w3.org/2000/svg">
<mask id="mask0" mask-type="alpha" maskUnits="userSpaceOnUse" x="0" y="3" width="25" height="13">
<path fill-rule="evenodd" clip-rule="evenodd" d="M0 3.7002H24.7465V15.625H0V3.7002Z" fill="white"/>
</mask>
<g mask="url(#mask0)">
<path fill-rule="evenodd" clip-rule="evenodd" d="M1.15625 9.6636L2.47984 10.9012C7.93545 16.0026 16.8113 16.0026 22.2669 10.9012L23.5854 9.6636L22.262 8.42595C16.8062 3.32457 7.93053 3.32457 2.47491 8.42595L1.15625 9.6636ZM12.3712 15.625C8.54208 15.625 4.7129 14.2598 1.79812 11.5343L0.136134 9.98013C-0.0505863 9.80529 -0.0505863 9.52211 0.136134 9.34244L1.79812 7.78831C7.62768 2.33749 17.1148 2.33749 22.9444 7.78831L24.6061 9.34244C24.7931 9.51727 24.7931 9.80069 24.6061 9.98013L22.9444 11.5343C20.0296 14.2598 16.2004 15.625 12.3712 15.625Z" fill="#567FEA"/>
</g>
<path fill-rule="evenodd" clip-rule="evenodd" d="M12.3709 6.23926C10.3503 6.23926 8.7085 7.77444 8.7085 9.6639C8.7085 11.5534 10.3503 13.0885 12.3709 13.0885C14.3916 13.0885 16.0333 11.5534 16.0333 9.6639C16.0333 7.77444 14.3916 6.23926 12.3709 6.23926ZM12.369 13.9859C9.8178 13.9859 7.74683 12.0446 7.74683 9.66385C7.74683 7.27854 9.82297 5.3418 12.369 5.3418C14.9151 5.3418 16.9912 7.28314 16.9912 9.66385C16.9912 12.0492 14.92 13.9859 12.369 13.9859Z" fill="#567FEA"/>
<rect x="18.6565" y="1.29869" width="1.85019" height="20.5543" rx="0.925093" transform="rotate(37.658 18.6565 1.29869)" fill="#567FEA" stroke="white"/>
</svg>
