<svg width="24" height="12" viewBox="0 0 24 12" fill="none" xmlns="http://www.w3.org/2000/svg">
<mask id="mask0" mask-type="alpha" maskUnits="userSpaceOnUse" x="0" y="0" width="24" height="12">
<path fill-rule="evenodd" clip-rule="evenodd" d="M0 0H24V12H0V0Z" fill="white"/>
</mask>
<g mask="url(#mask0)">
<path fill-rule="evenodd" clip-rule="evenodd" d="M1.12144 6.001L2.4051 7.24646C7.69614 12.38 16.3043 12.38 21.5953 7.24646L22.8739 6.001L21.5905 4.75555C16.2992 -0.378012 7.69137 -0.378012 2.40033 4.75555L1.12144 6.001ZM11.998 12C8.28439 12 4.57071 10.6262 1.74386 7.88348L0.132016 6.31955C-0.0490713 6.14361 -0.0490713 5.85865 0.132016 5.67784L1.74386 4.1139C7.39757 -1.3713 16.5985 -1.3713 22.2522 4.1139L23.8638 5.67784C24.0451 5.85377 24.0451 6.13898 23.8638 6.31955L22.2522 7.88348C19.4253 10.6262 15.7117 12 11.998 12Z" fill="#567FEA"/>
</g>
<path fill-rule="evenodd" clip-rule="evenodd" d="M11.9978 2.55449C10.0381 2.55449 8.44586 4.09936 8.44586 6.00074C8.44586 7.90212 10.0381 9.44698 11.9978 9.44698C13.9575 9.44698 15.5497 7.90212 15.5497 6.00074C15.5497 4.09936 13.9575 2.55449 11.9978 2.55449ZM11.9958 10.35C9.52162 10.35 7.51312 8.39641 7.51312 6.00068C7.51312 3.60033 9.52664 1.65137 11.9958 1.65137C14.4651 1.65137 16.4786 3.60496 16.4786 6.00068C16.4786 8.40104 14.4699 10.35 11.9958 10.35Z" fill="#567FEA"/>
</svg>
