<svg width="30" height="30" viewBox="0 0 30 30" fill="none" xmlns="http://www.w3.org/2000/svg">
<path fill-rule="evenodd" clip-rule="evenodd" d="M23 1.5H7C3.96243 1.5 1.5 3.96243 1.5 7V23C1.5 26.0376 3.96243 28.5 7 28.5H23C26.0376 28.5 28.5 26.0376 28.5 23V7C28.5 3.96243 26.0376 1.5 23 1.5ZM7 0C3.13401 0 0 3.13401 0 7V23C0 26.866 3.13401 30 7 30H23C26.866 30 30 26.866 30 23V7C30 3.13401 26.866 0 23 0H7Z" fill="white"/>
<path d="M12.8913 9.63128C12.8913 10.1038 12.8913 12.2128 12.8913 12.2128H11V15.3695H12.8913V24.75H16.7764V15.3697H19.3835C19.3835 15.3697 19.6277 13.8561 19.746 12.2011C19.4067 12.2011 16.7911 12.2011 16.7911 12.2011C16.7911 12.2011 16.7911 10.3647 16.7911 10.0428C16.7911 9.72021 17.2147 9.28628 17.6334 9.28628C18.0513 9.28628 18.9332 9.28628 19.7501 9.28628C19.7501 8.85649 19.7501 7.37149 19.7501 6C18.6596 6 17.4189 6 16.8721 6C12.7953 5.99978 12.8913 9.1596 12.8913 9.63128Z" fill="white"/>
</svg>
