<svg width="30" height="30" viewBox="0 0 30 30" fill="none" xmlns="http://www.w3.org/2000/svg">
<path d="M23.6651 0H6.33477C2.84175 0 0 2.84175 0 6.33477V23.6652C0 27.1582 2.84175 30 6.33477 30H23.6652C27.1582 30 30 27.1582 30 23.6652V6.33477C29.9998 2.84175 27.1581 0 23.6651 0ZM28.4744 23.6651C28.4744 26.3169 26.3169 28.4744 23.6651 28.4744H6.33477C3.68287 28.4744 1.52545 26.3169 1.52545 23.6651V6.33477C1.52545 3.68287 3.68287 1.52545 6.33477 1.52545H23.6652C26.3171 1.52545 28.4746 3.68287 28.4746 6.33477V23.6651H28.4744Z" fill="white"/>
<path d="M15.0005 7.11816C10.6546 7.11816 7.11914 10.6537 7.11914 14.9995C7.11914 19.3453 10.6546 22.8808 15.0005 22.8808C19.3463 22.8808 22.8818 19.3453 22.8818 14.9995C22.8818 10.6537 19.3463 7.11816 15.0005 7.11816ZM15.0005 21.3554C11.4958 21.3554 8.64459 18.504 8.64459 14.9995C8.64459 11.495 11.4959 8.64361 15.0005 8.64361C18.505 8.64361 21.3563 11.495 21.3563 14.9995C21.3563 18.504 18.5051 21.3554 15.0005 21.3554Z" fill="white"/>
<path d="M23.1359 7.88127C24.2592 7.88127 25.1698 6.97066 25.1698 5.84737C25.1698 4.72408 24.2592 3.81348 23.1359 3.81348C22.0127 3.81348 21.1021 4.72408 21.1021 5.84737C21.1021 6.97066 22.0127 7.88127 23.1359 7.88127Z" fill="white"/>
</svg>
