<svg width="76" height="12" viewBox="0 0 76 12" fill="none" xmlns="http://www.w3.org/2000/svg">
<path fill-rule="evenodd" clip-rule="evenodd" d="M7.18782 7.95882C7.18782 8.39237 7.13866 8.84656 7.04034 9.3214C6.94202 9.79624 6.7609 10.2324 6.49698 10.6298C6.23307 11.0272 5.86566 11.3549 5.39475 11.613C4.92384 11.8711 4.3158 12.0001 3.57062 12.0001C2.63915 12.0001 1.86294 11.7601 1.24196 11.2801C0.620975 10.8001 0.206994 10.1833 0 9.42979L2.34419 8.64011C2.41664 8.92914 2.5486 9.1614 2.74007 9.33688C2.93154 9.51237 3.16699 9.60011 3.44643 9.60011C3.88112 9.60011 4.16832 9.45043 4.30804 9.15108C4.44776 8.85172 4.51762 8.45947 4.51762 7.97431V0.743367H7.18782V7.95882ZM12.016 1.533C12.016 1.72913 11.9771 1.91235 11.8995 2.08267C11.8219 2.253 11.7184 2.40009 11.589 2.52396C11.4597 2.64783 11.3044 2.7459 11.1233 2.81815C10.9422 2.89041 10.7533 2.92654 10.5567 2.92654C10.1427 2.92654 9.79596 2.78977 9.51651 2.51622C9.23707 2.24267 9.09735 1.91493 9.09735 1.533C9.09735 1.34719 9.13358 1.16913 9.20603 0.998806C9.27847 0.828483 9.38197 0.681388 9.51651 0.557517C9.65106 0.433646 9.8063 0.333003 9.98225 0.255583C10.1582 0.178164 10.3497 0.139454 10.5567 0.139454C10.7533 0.139454 10.9422 0.175583 11.1233 0.247841C11.3044 0.320099 11.4597 0.418162 11.589 0.542034C11.7184 0.665905 11.8219 0.812999 11.8995 0.983322C11.9771 1.15365 12.016 1.33687 12.016 1.533ZM9.28485 11.7059V3.99496H11.8309V11.7059H9.28485ZM22.0449 7.81935C22.0449 8.44903 21.9311 9.01934 21.7034 9.53031C21.4757 10.0413 21.1652 10.4748 20.7719 10.831C20.3786 11.1871 19.9232 11.4632 19.4058 11.6593C18.8883 11.8555 18.3346 11.9535 17.7446 11.9535C17.1651 11.9535 16.614 11.8555 16.0913 11.6593C15.5686 11.4632 15.1133 11.1871 14.7251 10.831C14.337 10.4748 14.0291 10.0413 13.8014 9.53031C13.5737 9.01934 13.4599 8.44903 13.4599 7.81935C13.4599 7.18967 13.5737 6.62194 13.8014 6.11613C14.0291 5.61032 14.337 5.18194 14.7251 4.83097C15.1133 4.48001 15.5686 4.21162 16.0913 4.02582C16.614 3.84001 17.1651 3.74711 17.7446 3.74711C18.3346 3.74711 18.8883 3.84001 19.4058 4.02582C19.9232 4.21162 20.3786 4.48001 20.7719 4.83097C21.1652 5.18194 21.4757 5.61032 21.7034 6.11613C21.9311 6.62194 22.0449 7.18967 22.0449 7.81935ZM19.5915 7.81943C19.5915 7.57169 19.5501 7.32911 19.4673 7.09169C19.3845 6.85427 19.2655 6.64524 19.1102 6.4646C18.955 6.28395 18.7635 6.13686 18.5358 6.02331C18.3081 5.90976 18.0442 5.85299 17.7441 5.85299C17.4439 5.85299 17.18 5.90976 16.9523 6.02331C16.7246 6.13686 16.5357 6.28395 16.3857 6.4646C16.2356 6.64524 16.1217 6.85427 16.0441 7.09169C15.9665 7.32911 15.9277 7.57169 15.9277 7.81943C15.9277 8.06717 15.9665 8.30975 16.0441 8.54717C16.1217 8.78459 16.2382 8.99878 16.3934 9.18975C16.5487 9.38072 16.7401 9.53297 16.9678 9.64652C17.1955 9.76007 17.4594 9.81684 17.7596 9.81684C18.0597 9.81684 18.3236 9.76007 18.5513 9.64652C18.779 9.53297 18.9705 9.38072 19.1257 9.18975C19.281 8.99878 19.3974 8.78459 19.475 8.54717C19.5527 8.30975 19.5915 8.06717 19.5915 7.81943ZM34.6206 11.7059V7.1227H30.3358V11.7059H27.6811V0.743367H30.3358V4.89303H34.6206V0.743367H37.2752V11.7059H34.6206ZM44.7256 6.9677C44.7256 6.56511 44.5988 6.21931 44.3452 5.93028C44.0917 5.64125 43.7113 5.49673 43.2042 5.49673C42.9558 5.49673 42.7281 5.53544 42.5211 5.61286C42.3141 5.69028 42.133 5.79609 41.9777 5.93028C41.8225 6.06447 41.6983 6.22189 41.6052 6.40254C41.512 6.58318 41.4603 6.77157 41.4499 6.9677H44.7256ZM47.0696 7.94322V8.2529C47.0696 8.35612 47.0644 8.45419 47.0541 8.54709H41.4497C41.4704 8.76386 41.5351 8.95999 41.6438 9.13547C41.7525 9.31096 41.8922 9.46321 42.0629 9.59225C42.2337 9.72128 42.4252 9.82192 42.6374 9.89418C42.8495 9.96644 43.0694 10.0026 43.2971 10.0026C43.7008 10.0026 44.0423 9.92773 44.3218 9.77805C44.6012 9.62838 44.8289 9.43483 45.0048 9.19741L46.7746 10.3122C46.4124 10.8387 45.9337 11.2439 45.3386 11.5277C44.7435 11.8116 44.0527 11.9535 43.2661 11.9535C42.6865 11.9535 42.138 11.8632 41.6205 11.6826C41.103 11.5019 40.6502 11.2387 40.2621 10.8929C39.874 10.5471 39.5687 10.1213 39.3462 9.61547C39.1236 9.10966 39.0124 8.53161 39.0124 7.88129C39.0124 7.25161 39.1211 6.68129 39.3384 6.17032C39.5557 5.65936 39.8507 5.22581 40.2233 4.86968C40.5959 4.51355 41.0357 4.23743 41.5429 4.0413C42.05 3.84517 42.5985 3.74711 43.1885 3.74711C43.7577 3.74711 44.2804 3.84259 44.7564 4.03356C45.2325 4.22452 45.6413 4.50065 45.9829 4.86194C46.3244 5.22323 46.5909 5.66194 46.7824 6.17807C46.9739 6.6942 47.0696 7.28257 47.0696 7.94322ZM53.2181 8.34578H52.892C52.6126 8.34578 52.3306 8.35869 52.046 8.38449C51.7613 8.4103 51.5078 8.45933 51.2853 8.53159C51.0627 8.60385 50.879 8.70965 50.7341 8.84901C50.5892 8.98836 50.5168 9.17159 50.5168 9.39868C50.5168 9.5432 50.5504 9.66707 50.6177 9.7703C50.685 9.87352 50.7704 9.9561 50.8739 10.018C50.9774 10.08 51.0964 10.1238 51.2309 10.1496C51.3655 10.1755 51.4948 10.1884 51.619 10.1884C52.1365 10.1884 52.5324 10.0464 52.8067 9.76255C53.0809 9.47868 53.2181 9.09417 53.2181 8.60901V8.34578ZM48.5456 5.04775C49.001 4.6142 49.5314 4.28904 50.1369 4.07227C50.7423 3.85549 51.3607 3.74711 51.992 3.74711C52.6441 3.74711 53.1952 3.82711 53.6454 3.98711C54.0956 4.14711 54.4604 4.39484 54.7399 4.73033C55.0193 5.06581 55.2237 5.48903 55.3531 6C55.4825 6.51097 55.5471 7.11741 55.5471 7.81935V11.7058H53.2185V10.8851H53.1719C52.9753 11.2051 52.6777 11.4529 52.2792 11.6284C51.8808 11.8039 51.4487 11.8916 50.9829 11.8916C50.6725 11.8916 50.3516 11.8503 50.0204 11.7677C49.6892 11.6851 49.3865 11.5509 49.1123 11.3651C48.838 11.1793 48.6129 10.9316 48.4369 10.6219C48.261 10.3122 48.173 9.93031 48.173 9.47612C48.173 8.9187 48.3257 8.46967 48.631 8.12902C48.9363 7.78838 49.3296 7.52516 49.8109 7.33935C50.2921 7.15354 50.8277 7.02968 51.4176 6.96774C52.0076 6.9058 52.582 6.87484 53.1409 6.87484V6.75097C53.1409 6.36903 53.0063 6.08774 52.7372 5.9071C52.4681 5.72645 52.1369 5.63613 51.7436 5.63613C51.3814 5.63613 51.0321 5.71355 50.6957 5.86839C50.3594 6.02323 50.0722 6.20903 49.8341 6.42581L48.5456 5.04775ZM57.4722 11.7058V0H60.0493V11.7058H57.4722ZM64.8319 5.89931V8.84124C64.8319 9.20253 64.9018 9.47349 65.0415 9.65414C65.1812 9.83478 65.4322 9.92511 65.7944 9.92511C65.9186 9.92511 66.0506 9.91478 66.1903 9.89414C66.33 9.87349 66.4465 9.84253 66.5396 9.80124L66.5707 11.6593C66.3947 11.7212 66.1722 11.7754 65.9031 11.8219C65.634 11.8683 65.3649 11.8915 65.0958 11.8915C64.5784 11.8915 64.1437 11.827 63.7918 11.698C63.4399 11.569 63.1579 11.3832 62.9457 11.1406C62.7335 10.898 62.5809 10.609 62.4877 10.2735C62.3946 9.93801 62.348 9.56382 62.348 9.15092V5.89931H61.1061V3.9948H62.3325V1.96643H64.8319V3.9948H66.6483V5.89931H64.8319ZM72.934 11.7058V7.52513C72.934 7.30836 72.9185 7.10191 72.8874 6.90578C72.8564 6.70965 72.7969 6.53675 72.7089 6.38707C72.6209 6.2374 72.5045 6.11869 72.3596 6.03095C72.2147 5.9432 72.0284 5.89933 71.8007 5.89933C71.3557 5.89933 71.0141 6.05675 70.7761 6.37159C70.538 6.68643 70.419 7.0761 70.419 7.54062V11.7058H67.873V0H70.419V4.9703H70.4501C70.626 4.66063 70.9055 4.3845 71.2884 4.14192C71.6713 3.89934 72.1319 3.77805 72.6701 3.77805C73.1979 3.77805 73.6404 3.87095 73.9974 4.05676C74.3545 4.24257 74.6443 4.48256 74.8668 4.77676C75.0893 5.07095 75.2497 5.40901 75.348 5.79095C75.4464 6.17288 75.4955 6.55481 75.4955 6.93675V11.7058H72.934Z" fill="white"/>
</svg>
