<svg width="24" height="24" viewBox="0 0 24 24" fill="none" xmlns="http://www.w3.org/2000/svg">
<mask id="mask0" mask-type="alpha" maskUnits="userSpaceOnUse" x="0" y="0" width="24" height="24">
<rect width="24" height="24" fill="#C4C4C4"/>
</mask>
<g mask="url(#mask0)">
<path d="M19.2889 8.93911V6.44444C19.2889 2.89111 16.0987 0 12.1778 0C8.25688 0 5.06665 2.89111 5.06665 6.44444C5.06665 6.69022 5.26532 6.88889 5.5111 6.88889C5.75688 6.88889 5.95554 6.69022 5.95554 6.44444C5.95554 3.38089 8.74665 0.888889 12.1778 0.888889C15.6089 0.888889 18.4 3.38089 18.4 6.44444V8.88889H5.61288C3.84132 8.88889 2.39999 10.3302 2.39999 12.1018V20.7871C2.39999 22.5587 3.84132 24 5.61288 24H18.7427C20.5142 24 21.9555 22.5587 21.9555 20.7871V12.1018C21.9555 10.5169 20.8004 9.19956 19.2889 8.93911ZM13.9555 16.8889C13.9555 17.8693 13.1582 18.6667 12.1778 18.6667C11.1973 18.6667 10.4 17.8693 10.4 16.8889V14.2222C10.4 13.2418 11.1973 12.4444 12.1778 12.4444C13.1582 12.4444 13.9555 13.2418 13.9555 14.2222V16.8889Z" fill="#ED4C4C"/>
</g>
</svg>
