<svg width="30" height="30" viewBox="0 0 30 30" fill="none" xmlns="http://www.w3.org/2000/svg">
<mask id="mask0" mask-type="alpha" maskUnits="userSpaceOnUse" x="0" y="0" width="30" height="30">
<rect width="30" height="30" fill="#C4C4C4"/>
</mask>
<g mask="url(#mask0)">
<path d="M16.3742 14.9995C15.3388 14.9995 14.4994 14.1601 14.4994 13.1246C14.4994 12.0892 15.3388 11.2498 16.3742 11.2498H23.2488V3.12527C23.2488 1.3995 21.8498 0.000488281 20.124 0.000488281H5.12498C4.77983 0.000488281 4.5 0.280314 4.5 0.625467V25.6239C4.5 25.969 4.77983 26.2488 5.12498 26.2488H20.124C21.8498 26.2488 23.2488 24.8498 23.2488 23.1241V14.9995H16.3742Z" fill="#567FEA"/>
<path d="M12.863 3.26136L5.76353 0.219073C4.39305 -0.368408 2.80585 0.266355 2.21837 1.63683C2.07453 1.97244 2.00024 2.33376 2 2.69889V24.2562C1.99918 25.3364 2.64303 26.3127 3.63613 26.7374L10.7356 29.7809C12.1061 30.3684 13.6933 29.7336 14.2808 28.3632C14.4248 28.0272 14.4991 27.6654 14.4992 27.2999V5.74247C14.5 4.66236 13.8562 3.68602 12.863 3.26136Z" fill="#ABC3FF"/>
<path d="M11.375 17.4993C11.0298 17.4993 10.75 17.2195 10.75 16.8743V14.3745C10.75 14.0293 11.0298 13.7495 11.375 13.7495C11.7201 13.7495 12 14.0293 12 14.3745V16.8743C12 17.2196 11.7201 17.4993 11.375 17.4993Z" fill="black"/>
<path d="M29.4516 13.3633C29.5482 13.1295 29.4944 12.8606 29.3154 12.682L25.5656 8.93228C25.3174 8.69247 24.9217 8.69938 24.6819 8.94763C24.448 9.18984 24.448 9.57378 24.6819 9.81599L27.3655 12.4996H16.375C16.0298 12.4996 15.75 12.7794 15.75 13.1246C15.75 13.4697 16.0298 13.7495 16.375 13.7495H27.3655L24.6832 16.4318C24.435 16.6717 24.4281 17.0673 24.6679 17.3156C24.9077 17.5638 25.3033 17.5707 25.5516 17.3309C25.5568 17.3259 25.5619 17.3208 25.5669 17.3156L29.3167 13.5658C29.3744 13.5077 29.4203 13.439 29.4516 13.3633Z" fill="#ED4C4C"/>
<path d="M11.375 17.4993C11.0298 17.4993 10.75 17.2195 10.75 16.8743V14.3745C10.75 14.0293 11.0298 13.7495 11.375 13.7495C11.7201 13.7495 12 14.0293 12 14.3745V16.8743C12 17.2196 11.7201 17.4993 11.375 17.4993Z" fill="white"/>
</g>
</svg>
