<svg width="52" height="30" viewBox="0 0 52 30" fill="none" xmlns="http://www.w3.org/2000/svg">
<path fill-rule="evenodd" clip-rule="evenodd" d="M37.1527 7.531C37.7418 7.531 38.3138 7.60289 38.864 7.73468C38.914 7.73534 38.9608 7.73601 38.9997 7.73601V6.5166H24.9535C24.6675 6.93461 24.402 7.36792 24.1582 7.81522H35.1364C35.7769 7.63151 36.453 7.531 37.1527 7.531ZM17.109 22.1681C17.0194 22.1967 16.8969 22.218 16.7512 22.236C16.1437 22.3984 15.5052 22.4862 14.847 22.4862C14.2111 22.4862 13.5937 22.4057 13.004 22.2533C12.9868 22.2533 12.9664 22.2526 12.9513 22.2526L12.7911 23.4674H27.1655C27.4488 23.048 27.7137 22.616 27.9549 22.1681H17.109ZM21.5888 18.2723H29.3963C29.4906 17.8463 29.5663 17.4136 29.623 16.9736H22.0698C21.9486 17.4256 21.7871 17.8602 21.5888 18.2723ZM22.6943 11.7107C22.5987 12.138 22.5216 12.5707 22.463 13.01H30.0241C30.148 12.558 30.3127 12.124 30.5143 11.7107H22.6943ZM31.1439 1.32227C30.3328 1.68769 29.5592 2.12101 28.8324 2.62022H37.1803V1.32227H31.1439ZM27.1949 3.91943C26.7521 4.32546 26.337 4.76077 25.9463 5.21805H37.1749V3.91943H27.1949ZM23.3174 27.3633H14.9043V28.6619H21.0428C21.8414 28.2951 22.6025 27.8612 23.3174 27.3633ZM23.5312 9.11401C23.3513 9.53668 23.1919 9.97 23.0502 10.4126H31.3295C31.7038 9.92806 32.136 9.49208 32.6151 9.11401H23.5312ZM20.7942 19.5715C20.4265 20.0541 20.0015 20.4901 19.5304 20.8702H28.5767C28.7546 20.4468 28.9121 20.0135 29.0524 19.5715H20.7942ZM26.175 24.7659C25.7869 25.2231 25.3731 25.6578 24.9342 26.0645H14.9055L14.4132 24.7659H26.175Z" fill="#5AD3C0"/>
<path fill-rule="evenodd" clip-rule="evenodd" d="M37.1512 0C35.1679 0 33.2761 0.393379 31.5471 1.10625C34.6895 2.39955 37.2955 4.74784 38.9316 7.71849C42.1715 8.52455 44.5753 11.4779 44.5753 15.0003C44.5753 19.1418 41.2517 22.5005 37.1512 22.5005C33.0508 22.5005 29.7265 19.1418 29.7265 15.0003H29.6975C29.6975 6.71607 23.0497 0 14.8494 0C6.6485 0 0 6.71607 0 15.0003C0 23.2846 6.6485 30 14.8494 30C16.813 30 18.6863 29.6133 20.4028 28.9144C17.2261 27.6204 14.5944 25.2522 12.9504 22.2529C9.76981 21.4042 7.42405 18.4802 7.42405 15.0003C7.42405 10.8582 10.7483 7.4995 14.8494 7.4995C18.9492 7.4995 22.2735 10.8582 22.2735 15.0003H22.3025C22.3025 23.2846 28.951 30 37.1512 30C45.3515 30 52 23.2846 52 15.0003C52 6.71607 45.3515 0 37.1512 0Z" fill="#4CE1C6"/>
</svg>
