<svg width="22" height="28" viewBox="0 0 22 28" fill="none" xmlns="http://www.w3.org/2000/svg">
<path d="M0.5 3.35401C0.5 2.24944 1.39543 1.354 2.5 1.354H6.17018C6.68834 1.354 7.10839 1.77405 7.10839 2.29221C7.10839 2.81037 7.52844 3.23042 8.0466 3.23042H13.7226C14.2408 3.23042 14.6608 2.81037 14.6608 2.29221C14.6608 1.77405 15.0809 1.354 15.599 1.354H19.2692C20.3738 1.354 21.2692 2.24943 21.2692 3.354V25.6239C21.2692 26.7284 20.3738 27.6239 19.2692 27.6239H2.5C1.39543 27.6239 0.5 26.7284 0.5 25.6239V3.35401Z" fill="#567FEA"/>
<path d="M5.57715 2.60866C5.57715 1.46161 6.50702 0.531738 7.65407 0.531738H14.1156C15.2627 0.531738 16.1925 1.46161 16.1925 2.60866C16.1925 3.75571 15.2627 4.68558 14.1156 4.68558H7.65407C6.50702 4.68558 5.57715 3.75571 5.57715 2.60866Z" fill="#4CE1C6"/>
<path d="M4.61328 10.3884L5.55734 11.3266L7.44545 9.4502" stroke="white" stroke-linecap="round" stroke-linejoin="round"/>
<path d="M11.1155 10.3882H16.7798" stroke="white" stroke-linecap="round"/>
<path d="M4.61328 14.6023L5.55734 15.5405L7.44545 13.6641" stroke="white" stroke-linecap="round" stroke-linejoin="round"/>
<path d="M11.1155 14.6025H16.7798" stroke="white" stroke-linecap="round"/>
<path d="M11.1155 19.3848H16.7798" stroke="white" stroke-linecap="round"/>
<path d="M4.63721 18.478L6.6283 20.4027" stroke="white" stroke-linecap="round"/>
<path d="M6.62842 18.478L4.63732 20.4027" stroke="white" stroke-linecap="round"/>
</svg>
