<svg width="80" height="80" viewBox="0 0 80 80" fill="none" xmlns="http://www.w3.org/2000/svg">
<circle opacity="0.4" cx="40" cy="40" r="40" fill="url(#paint0_linear)"/>
<mask id="mask0" mask-type="alpha" maskUnits="userSpaceOnUse" x="18" y="16" width="48" height="48">
<rect x="18" y="16" width="48" height="48" fill="#C4C4C4"/>
</mask>
<g mask="url(#mask0)">
<path d="M52.2227 25.6824H45.754V19.2137C45.754 18.4891 45.1848 17.9199 44.4602 17.9199H23.8012C21.6534 17.9199 19.9199 19.6535 19.9199 21.8012V58.1987C19.9199 60.3462 21.6534 62.0799 23.8012 62.0799H49.6352C51.783 62.0799 53.5165 60.3462 53.5165 58.1987V26.9762C53.5165 26.2516 52.9473 25.6824 52.2227 25.6824Z" fill="#567FEA"/>
<path d="M53.5167 28.2699H44.4605C43.7454 28.2699 43.1667 27.6913 43.1667 26.9762V17.9199H45.9867C47.0025 17.9199 47.998 18.3318 48.7157 19.0507L52.3872 22.7234C53.1048 23.4436 53.5167 24.4366 53.5167 25.4499V28.2699Z" fill="#BCCFFF"/>
<path d="M62.9351 31.789C61.4862 30.3141 58.8987 30.3141 57.4496 31.789L56.1299 33.1346L55.1984 34.0401C54.6808 34.5318 54.6808 35.3598 55.1984 35.8514L57.0355 37.6886L58.8728 39.5256C59.3383 40.0431 60.2184 40.0431 60.6839 39.5256L61.6154 38.6201L62.9351 37.2745C64.4616 35.8254 64.4616 33.2379 62.9351 31.789Z" fill="#E88080"/>
<path d="M48.1859 46.5375L45.5207 43.8722C45.4692 43.8206 45.4174 43.8206 45.3657 43.8722L45.2883 43.9241C45.1329 44.0793 45.0293 44.2605 44.9775 44.4416L43.1404 49.953C42.9591 50.4704 43.1145 50.962 43.4509 51.2726V51.2983C43.8132 51.6347 44.3047 51.764 44.7705 51.583L50.2819 49.7458C50.4632 49.694 50.6442 49.5905 50.7993 49.4353L50.8512 49.3835C50.903 49.3318 50.903 49.28 50.8512 49.2282C49.9974 48.3487 49.0659 47.4171 48.1859 46.5375Z" fill="#FEDBAB"/>
<path d="M44.4603 33.4449H26.3888C24.6813 33.4449 24.6813 30.8574 26.3888 30.8574H44.4603C46.1679 30.8574 46.1679 33.4449 44.4603 33.4449Z" fill="white"/>
<path d="M39.2853 38.62H26.3888C24.6813 38.62 24.6813 36.0325 26.3888 36.0325H39.2853C40.9929 36.0325 40.9929 38.62 39.2853 38.62Z" fill="white"/>
<path d="M39.2853 43.795H26.3888C24.6813 43.795 24.6813 41.2075 26.3888 41.2075H39.2853C40.9929 41.2075 40.9929 43.795 39.2853 43.795Z" fill="white"/>
<path d="M39.2853 48.9698H26.3888C24.6813 48.9698 24.6813 46.3823 26.3888 46.3823H39.2853C40.9929 46.3823 40.9929 48.9698 39.2853 48.9698Z" fill="white"/>
<path d="M44.4603 56.9046H36.6979C34.9904 56.9046 34.9904 54.3171 36.6979 54.3171H44.4603C46.1679 54.3171 46.1679 56.9046 44.4603 56.9046Z" fill="white"/>
<path d="M48.186 46.5376C49.066 47.4173 49.9974 48.3488 50.8512 49.2285C50.903 49.2803 50.903 49.3321 50.8512 49.3838L50.7993 49.4356C50.6443 49.5908 50.4633 49.6943 50.2819 49.7461L44.7706 51.5833C44.3046 51.7643 43.8132 51.635 43.4509 51.2986V51.2727L48.186 46.5376Z" fill="#FEC478"/>
<path d="M62.935 37.2741L61.6153 38.6197L60.6838 39.5252C60.2182 40.0427 59.3382 40.0427 58.8726 39.5252L57.0354 37.6882L62.935 31.7886C64.4615 33.2376 64.4615 35.8251 62.935 37.2741Z" fill="#D45B5B"/>
<path d="M61.6153 38.62L60.6838 39.5256C55.5607 44.623 57.2682 42.9152 52.6623 47.521C52.6623 47.5727 50.8253 49.4098 50.7994 49.4358C50.6443 49.591 50.4634 49.6944 50.282 49.7463L44.9775 44.4419C45.0294 44.2608 45.133 44.0796 45.2884 43.9244C45.3143 43.8985 47.1513 42.0613 47.2031 42.0613C50.5667 38.6976 48.9106 40.3795 55.1984 34.0401L56.104 33.1086L61.6153 38.62Z" fill="#4CE1C6"/>
<path d="M61.6156 38.6202L60.6841 39.5257C55.561 44.6232 57.2684 42.9154 52.6626 47.5212C52.6626 47.5729 50.8256 49.41 50.7997 49.4359C50.6446 49.5912 50.4637 49.6946 50.2823 49.7464L47.6429 47.1071L58.873 35.8774L61.6156 38.6202Z" fill="#50CFBA"/>
</g>
<defs>
<linearGradient id="paint0_linear" x1="-13.0233" y1="12.5581" x2="106.047" y2="59.0698" gradientUnits="userSpaceOnUse">
<stop stop-color="#97E6FF"/>
<stop offset="1" stop-color="#4CE1C6" stop-opacity="0.13"/>
</linearGradient>
</defs>
</svg>
