<svg width="28" height="25" viewBox="0 0 28 25" fill="none" xmlns="http://www.w3.org/2000/svg">
<mask id="mask0" mask-type="alpha" maskUnits="userSpaceOnUse" x="0" y="0" width="21" height="21">
<rect x="0.812988" y="0.291504" width="19.8678" height="19.8678" fill="#C4C4C4"/>
</mask>
<g mask="url(#mask0)">
<path d="M19.5788 16.5854H1.91497C1.56994 16.5854 1.29043 16.3059 1.29043 15.9608V3.77776C1.29043 3.43274 1.56994 3.15322 1.91497 3.15322H19.5788C19.9238 3.15322 20.2034 3.43274 20.2034 3.77776V15.9608C20.2034 16.3059 19.9238 16.5854 19.5788 16.5854Z" fill="white" stroke="#D7DBE5" stroke-width="0.954887"/>
<path d="M20.6806 4.38867H0.812744V7.12906H20.6806V4.38867Z" fill="#E88080"/>
<path d="M5.95136 9.52689H2.86843C2.67934 9.52689 2.52588 9.37343 2.52588 9.18435C2.52588 8.99526 2.67934 8.8418 2.86843 8.8418H5.95136C6.14045 8.8418 6.29391 8.99526 6.29391 9.18435C6.29391 9.37343 6.14045 9.52689 5.95136 9.52689Z" fill="#567FEA"/>
<path d="M10.4042 9.52689H7.32131C7.13222 9.52689 6.97876 9.37343 6.97876 9.18435C6.97876 8.99526 7.13222 8.8418 7.32131 8.8418H10.4042C10.5933 8.8418 10.7468 8.99526 10.7468 9.18435C10.7468 9.37343 10.5933 9.52689 10.4042 9.52689Z" fill="#567FEA"/>
<path d="M3.21098 11.2398H2.86843C2.67934 11.2398 2.52588 11.0863 2.52588 10.8972C2.52588 10.7081 2.67934 10.5547 2.86843 10.5547H3.21098C3.40006 10.5547 3.55352 10.7081 3.55352 10.8972C3.55352 11.0863 3.40006 11.2398 3.21098 11.2398Z" fill="#567FEA"/>
<path d="M5.26568 11.2398H4.58059C4.3915 11.2398 4.23804 11.0863 4.23804 10.8972C4.23804 10.7081 4.3915 10.5547 4.58059 10.5547H5.26568C5.45477 10.5547 5.60823 10.7081 5.60823 10.8972C5.60823 11.0863 5.45477 11.2398 5.26568 11.2398Z" fill="#567FEA"/>
<path d="M6.97855 11.2398H6.63601C6.44692 11.2398 6.29346 11.0863 6.29346 10.8972C6.29346 10.7081 6.44692 10.5547 6.63601 10.5547H6.97855C7.16764 10.5547 7.3211 10.7081 7.3211 10.8972C7.3211 11.0863 7.16764 11.2398 6.97855 11.2398Z" fill="#567FEA"/>
<path d="M9.03399 11.2398H8.3489C8.15981 11.2398 8.00635 11.0863 8.00635 10.8972C8.00635 10.7081 8.15981 10.5547 8.3489 10.5547H9.03399C9.22308 10.5547 9.37654 10.7081 9.37654 10.8972C9.37654 11.0863 9.22308 11.2398 9.03399 11.2398Z" fill="#567FEA"/>
<path d="M10.4041 11.2394C10.315 11.2394 10.2259 11.2017 10.1609 11.1401C10.0992 11.075 10.0615 10.9893 10.0615 10.8969C10.0615 10.8078 10.0992 10.7187 10.1609 10.6537C10.2876 10.5269 10.5171 10.5269 10.6473 10.6537C10.7089 10.7187 10.7466 10.8078 10.7466 10.8969C10.7466 10.9859 10.7089 11.075 10.6473 11.1401C10.5822 11.2017 10.4931 11.2394 10.4041 11.2394Z" fill="white"/>
<path d="M16.5701 13.2945C16.5701 14.4298 15.65 15.3498 14.5148 15.3498C13.3796 15.3498 12.4595 14.4298 12.4595 13.2945C12.4595 12.1593 13.3796 11.2393 14.5148 11.2393C15.65 11.2393 16.5701 12.1593 16.5701 13.2945Z" fill="#4CE1C6"/>
<path d="M18.9678 13.2945C18.9678 14.4298 18.0477 15.3498 16.9125 15.3498C15.7773 15.3498 14.8572 14.4298 14.8572 13.2945C14.8572 12.1593 15.7773 11.2393 16.9125 11.2393C18.0477 11.2393 18.9678 12.1593 18.9678 13.2945Z" fill="#567FEA"/>
</g>
<mask id="mask1" mask-type="alpha" maskUnits="userSpaceOnUse" x="7" y="5" width="21" height="20">
<rect x="7.96533" y="5.05957" width="19.8678" height="19.8678" fill="#C4C4C4"/>
</mask>
<g mask="url(#mask1)">
<path d="M12.5271 22.6075L27.8333 13.6455L23.2716 5.85461L7.96544 14.8166L12.5271 22.6075Z" fill="#099079"/>
<path d="M22.0943 7.55811L10.0287 14.6229C10.2911 15.0711 10.13 15.6532 9.66895 15.9232L12.3963 20.5811C12.8574 20.3112 13.4439 20.4556 13.7063 20.9038L25.7719 13.839C25.5095 13.3908 25.6705 12.8087 26.1317 12.5387L23.4043 7.88075C22.9432 8.15078 22.3567 8.00629 22.0943 7.55811Z" fill="#4CE1C6"/>
<path d="M19.9993 13.0012C19.1399 11.5335 17.5033 10.894 16.3438 11.5729C15.1843 12.2518 14.941 13.992 15.8004 15.4597C16.6598 16.9274 18.2964 17.5668 19.4559 16.8879C20.6154 16.2091 20.8587 14.4689 19.9993 13.0012Z" fill="#31978C"/>
<path d="M23.846 11.2994C24.1499 11.2994 24.3963 11.053 24.3963 10.7491C24.3963 10.4451 24.1499 10.1987 23.846 10.1987C23.5421 10.1987 23.2957 10.4451 23.2957 10.7491C23.2957 11.053 23.5421 11.2994 23.846 11.2994Z" fill="#31978C"/>
<path d="M11.9539 18.2643C12.2579 18.2643 12.5043 18.0179 12.5043 17.7139C12.5043 17.41 12.2579 17.1636 11.9539 17.1636C11.65 17.1636 11.4036 17.41 11.4036 17.7139C11.4036 18.0179 11.65 18.2643 11.9539 18.2643Z" fill="#3EA69B"/>
<path d="M19.0397 16.4375L18.819 16.0606C18.319 16.2887 17.7856 16.3492 17.2193 16.2417L17.3333 15.5718C17.7695 15.6538 18.1546 15.6292 18.4896 15.4979L17.903 14.4962C17.4596 14.6312 17.1031 14.6757 16.8337 14.63C16.5644 14.5843 16.3425 14.4126 16.1682 14.1149C15.9939 13.8172 15.9551 13.513 16.0526 13.2014C16.1501 12.8901 16.3608 12.6283 16.6847 12.4155L16.5335 12.1573L16.8638 11.9639L17.018 12.2271C17.4128 12.0332 17.8463 11.9526 18.3188 11.9857L18.2612 12.6573C17.9392 12.6286 17.6349 12.6728 17.3475 12.79L17.9158 13.7606L17.9313 13.7515C18.3817 13.6128 18.746 13.5682 19.0244 13.6177C19.3032 13.6671 19.5307 13.8426 19.707 14.1436C19.8834 14.4449 19.9203 14.7528 19.8176 15.0669C19.7151 15.3814 19.4935 15.6496 19.1523 15.8725L19.37 16.2441L19.0397 16.4375ZM16.724 13.318C16.6815 13.4468 16.6942 13.5688 16.7617 13.6841C16.8293 13.7995 16.9171 13.8705 17.0253 13.8971C17.1331 13.9243 17.302 13.912 17.5311 13.8611L17.0081 12.9678C16.8612 13.0724 16.7665 13.1891 16.724 13.318ZM19.1367 14.9456C19.1866 14.8102 19.1765 14.6821 19.1059 14.5615C19.0354 14.4412 18.9417 14.3677 18.8247 14.3414C18.7073 14.3153 18.5274 14.3318 18.2848 14.3906L18.8289 15.3199C18.984 15.2062 19.0864 15.0814 19.1367 14.9456Z" fill="#44C4A1"/>
<path d="M18.6943 18.9961L21.6665 17.2559L17.1048 9.46495L14.1326 11.2052L18.6943 18.9961Z" fill="#E88080"/>
<path d="M18.9143 18.8684L19.1416 18.7354L14.5799 10.9444L14.3527 11.0775L18.9143 18.8684Z" fill="white"/>
<path d="M21.2188 17.5174L21.446 17.3843L16.8844 9.59337L16.6571 9.72645L21.2188 17.5174Z" fill="white"/>
<path d="M10.105 23.4159L27.5217 20.0674L25.8173 11.2022L8.4006 14.5507L10.105 23.4159Z" fill="#13B096"/>
<path d="M10.4949 22.027L9.27783 15.6951C9.62764 15.6279 9.85669 15.2898 9.78946 14.94L24.674 12.0791C24.7413 12.4289 25.0794 12.658 25.4291 12.5907L26.6462 18.9226C26.2964 18.9898 26.0673 19.3279 26.1345 19.6777L11.25 22.5386C11.1827 22.1888 10.8447 21.9597 10.4949 22.027Z" fill="#4CE1C6"/>
<path d="M22.0342 16.4877C21.7436 14.9764 19.6758 14.1035 17.4157 14.538C15.1555 14.9725 13.5588 16.55 13.8494 18.0613C14.1399 19.5727 16.2077 20.4456 18.4679 20.011C20.7281 19.5765 22.3248 17.9991 22.0342 16.4877Z" fill="#3EA69B"/>
<path d="M24.7273 16.5582C25.0313 16.5582 25.2777 16.3118 25.2777 16.0079C25.2777 15.7039 25.0313 15.4575 24.7273 15.4575C24.4234 15.4575 24.177 15.7039 24.177 16.0079C24.177 16.3118 24.4234 16.5582 24.7273 16.5582Z" fill="#3EA69B"/>
<path d="M11.1956 19.1593C11.4996 19.1593 11.746 18.9129 11.746 18.6089C11.746 18.305 11.4996 18.0586 11.1956 18.0586C10.8917 18.0586 10.6453 18.305 10.6453 18.6089C10.6453 18.9129 10.8917 19.1593 11.1956 19.1593Z" fill="#3EA69B"/>
<path d="M16.208 18.587L15.7092 18.66L14.6252 16.709L15.1853 16.6271L15.878 18.0215L15.8897 18.0198L16.1509 16.4858L16.7023 16.4052L16.208 18.587Z" fill="#D0FFF7"/>
<path d="M18.4853 18.2539L17.4563 17.0249L17.4476 17.0261L17.6568 18.3751L17.1726 18.4459L16.8704 16.3806L17.4393 16.2973L18.4649 17.5239L18.4737 17.5226L18.2649 16.1766L18.7491 16.1057L19.0513 18.1711L18.4853 18.2539Z" fill="#D0FFF7"/>
<path d="M21.2536 16.7882C21.2801 16.9691 21.269 17.1306 21.2202 17.2728C21.1732 17.4128 21.1005 17.5337 21.0021 17.6355C20.9055 17.735 20.7911 17.8153 20.659 17.8764C20.5266 17.9355 20.3894 17.9754 20.2474 17.9962L19.4773 18.1088L19.1752 16.0434L19.922 15.9342C20.0678 15.9128 20.2143 15.9093 20.3614 15.9235C20.5082 15.9358 20.6429 15.9737 20.7654 16.0373C20.8876 16.0988 20.9924 16.1908 21.0798 16.3131C21.1673 16.4354 21.2252 16.5937 21.2536 16.7882ZM20.7344 16.8642C20.7173 16.7475 20.6838 16.6541 20.6338 16.5839C20.5855 16.5115 20.5259 16.4577 20.4552 16.4223C20.3861 16.3847 20.3094 16.3622 20.2248 16.3547C20.1422 16.3469 20.0582 16.3493 19.9726 16.3618L19.7246 16.3981L19.9013 17.6058L20.1376 17.5712C20.2271 17.5581 20.3112 17.5359 20.39 17.5045C20.4705 17.4709 20.5385 17.4262 20.5939 17.3704C20.6512 17.3143 20.6927 17.2447 20.7183 17.1615C20.7458 17.078 20.7512 16.9789 20.7344 16.8642Z" fill="#D0FFF7"/>
</g>
</svg>
