<svg width="40" height="40" viewBox="0 0 40 40" fill="none" xmlns="http://www.w3.org/2000/svg">
<mask id="mask0" mask-type="alpha" maskUnits="userSpaceOnUse" x="0" y="0" width="40" height="40">
<rect width="40" height="40" fill="#C4C4C4"/>
</mask>
<g mask="url(#mask0)">
<path d="M33.828 4.3875L30.3777 0.975C29.3918 0 27.5602 0 26.9132 0H8.46576C6.54789 0 5 1.53098 5 3.42773V35.5723C5 37.4689 6.54789 39 8.46576 39H31.5342C33.4521 39 35 37.4689 35 35.5723V7.99805C35 7.35813 35 5.3625 33.828 4.3875Z" fill="#567FEA"/>
<path d="M25.9623 20.164C25.6386 19.9062 25.1677 19.9589 24.9076 20.2813L22.697 23.0447L19.2784 18.2588C20.7123 17.7315 21.7436 16.3645 21.7436 14.75C21.7436 12.6824 20.0613 11 17.9937 11H14.9937C14.5791 11 14.2437 11.3355 14.2437 11.75V22.2501C14.2437 22.6647 14.5791 23.0001 14.9937 23.0001C15.4082 23.0001 15.7437 22.6647 15.7437 22.2501V18.5001H17.6079L21.7234 24.2617L18.9077 27.7813C18.6492 28.105 18.7019 28.5767 19.0249 28.836C19.1634 28.9466 19.3289 29 19.4929 29C19.7134 29 19.9309 28.9033 20.0796 28.7187L22.63 25.5308L24.8835 28.6858C25.03 28.8909 25.26 29 25.4944 29C25.6453 29 25.7977 28.9546 25.9295 28.8601C26.2664 28.6198 26.3448 28.1511 26.1038 27.8142L23.6036 24.3138L26.0795 21.2187C26.3381 20.895 26.2853 20.4234 25.9623 20.164ZM15.7437 12.4999H17.9937C19.2344 12.4999 20.2436 13.5092 20.2436 14.7499C20.2436 15.9907 19.2344 17 17.9937 17H15.7437V12.4999Z" fill="white" stroke="white" stroke-width="1.33333"/>
<path d="M35 9H27.125C26.5032 9 26 8.49683 26 7.875V0H28.4521C29.3354 0 30.2011 0.358125 30.8252 0.98325L34.0178 4.17698C34.6418 4.80323 35 5.6667 35 6.5478V9Z" fill="#9BB6FF"/>
<path d="M33.7621 32.8813L27.1164 26.2357C26.8732 25.9924 26.4789 25.9924 26.2356 26.2357L21.5563 30.915C19.4812 32.99 19.4812 36.3664 21.5563 38.4415C23.6313 40.5166 27.0077 40.5165 29.0828 38.4415L33.7621 33.7622C34.0053 33.5189 34.0053 33.1246 33.7621 32.8813Z" fill="#4CE1C6"/>
<path d="M40.0002 25.3195C40.0002 23.8978 39.4467 22.5614 38.4416 21.5563C36.3666 19.4812 32.9902 19.4812 30.9151 21.5563L26.2358 26.2356L33.7623 33.7621L38.4417 29.0828C39.4467 28.0777 40.0002 26.7412 40.0002 25.3195Z" fill="#D4E0FF"/>
<path d="M33.7619 32.8814L30.4391 29.5586L21.5562 38.4416C23.6312 40.5166 27.0076 40.5166 29.0826 38.4416L33.762 33.7622C34.0052 33.519 34.0052 33.1246 33.7619 32.8814Z" fill="#3CCEB7"/>
<path d="M33.7632 33.762L38.4426 29.0826C39.4477 28.0776 40.0012 26.7411 40.0012 25.3194C40.0012 23.8977 39.4477 22.5612 38.4426 21.5562L30 29.9987L33.7632 33.762Z" fill="#A9C1FF"/>
</g>
</svg>
