<svg width="30" height="30" viewBox="0 0 30 30" fill="none" xmlns="http://www.w3.org/2000/svg">
<mask id="mask0" mask-type="alpha" maskUnits="userSpaceOnUse" x="0" y="0" width="30" height="30">
<rect width="30" height="30" fill="#C4C4C4"/>
</mask>
<g mask="url(#mask0)">
<path d="M0.982848 8.24137L23.6196 2.44311C24.3233 2.26331 25.0739 2.66782 25.2616 3.34207L29.742 19.2759C29.9297 19.9501 29.5075 20.6469 28.7802 20.8266L6.14359 26.6249C5.43988 26.8047 4.68924 26.4002 4.50157 25.7259L0.0445901 9.79203C-0.143085 9.11784 0.27914 8.42117 0.982848 8.24137Z" fill="#F2F5FF"/>
<path d="M2.88279 9.52236L22.6811 4.4658C23.2206 4.33096 23.7836 4.6456 23.9478 5.16247L27.6542 18.3546C27.7949 18.8714 27.4665 19.4108 26.927 19.5457L7.12862 24.6022C6.58912 24.7371 6.0261 24.4224 5.86189 23.9056L2.15561 10.7135C1.99141 10.1966 2.31982 9.6572 2.88279 9.52236Z" fill="#567FEA"/>
<path d="M5.08903 8.2666H28.664C29.2839 8.2666 29.7511 8.74617 29.7511 9.29759V26.0405C29.7511 26.6088 29.2662 27.0715 28.664 27.0715H5.08903C4.46916 27.0715 4.00195 26.5919 4.00195 26.0405V9.29765C4.00195 8.74897 4.48973 8.2666 5.08903 8.2666Z" fill="white" stroke="#D7DBE5" stroke-width="0.5"/>
<path d="M6.66103 9.81348H27.1396C27.7026 9.81348 28.1717 10.263 28.1717 10.8023V24.5562C28.1717 25.0956 27.7026 25.5451 27.1396 25.5451H6.66103C6.09806 25.5451 5.62891 25.0956 5.62891 24.5562V10.8023C5.62891 10.263 6.0746 9.81348 6.66103 9.81348Z" fill="#C0E4FF"/>
<path d="M5.62891 10.8023V15.6117C5.86346 15.6342 6.09807 15.6566 6.33261 15.6566C9.31172 15.6566 11.7279 13.3419 11.7279 10.4877C11.7279 10.263 11.7044 10.0382 11.681 9.81348H6.66103C6.0746 9.81348 5.62891 10.263 5.62891 10.8023Z" fill="#F3BB93"/>
<path d="M7.34133 20.8262C6.7549 20.8262 6.16846 20.8711 5.62891 20.9385V24.5568C5.62891 25.0961 6.09806 25.5456 6.66103 25.5456H14.4724C14.5194 25.3433 14.5428 25.1636 14.5428 24.9613C14.5428 22.669 11.3291 20.8262 7.34133 20.8262Z" fill="#567FEA"/>
<path d="M23.6898 18.8037C17.2624 18.8037 12.0313 21.8152 11.9609 25.5459H27.1146C27.6776 25.5459 28.1468 25.0964 28.1468 24.557V19.3206C26.7628 19.006 25.2615 18.8037 23.6898 18.8037Z" fill="#567FEA"/>
</g>
</svg>
