<svg width="31" height="31" viewBox="0 0 31 31" fill="none" xmlns="http://www.w3.org/2000/svg">
<mask id="mask0" mask-type="alpha" maskUnits="userSpaceOnUse" x="0" y="0" width="31" height="31">
<rect width="31" height="31" fill="#C4C4C4"/>
</mask>
<g mask="url(#mask0)">
<path d="M23.1038 3.22253L20.3385 0.457303C19.5485 -0.332764 18.0806 -0.332764 17.562 -0.332764H2.77758C1.24053 -0.332764 0 0.907826 0 2.44482V28.4923C0 30.0292 1.24053 31.2699 2.77758 31.2699H21.2655C22.8025 31.2699 24.043 30.0292 24.043 28.4923V6.14825C24.043 5.62971 24.043 4.0126 23.1038 3.22253Z" fill="#5E8AFF"/>
<path d="M16.5608 15.5967C16.305 15.3929 15.9329 15.4346 15.7275 15.6893L13.9809 17.8726L11.28 14.0914C12.4129 13.6748 13.2277 12.5947 13.2277 11.3192C13.2277 9.68564 11.8985 8.35645 10.265 8.35645H7.89481C7.56728 8.35645 7.30225 8.62148 7.30225 8.94902V17.2448C7.30225 17.5723 7.56728 17.8373 7.89481 17.8373C8.22234 17.8373 8.48737 17.5723 8.48737 17.2448V14.282H9.96026L13.2117 18.8341L10.9872 21.6148C10.7829 21.8705 10.8246 22.2432 11.0798 22.4481C11.1892 22.5354 11.3199 22.5777 11.4495 22.5777C11.6237 22.5777 11.7956 22.5013 11.913 22.3554L13.928 19.8367L15.7085 22.3294C15.8242 22.4914 16.0059 22.5777 16.1911 22.5777C16.3103 22.5777 16.4307 22.5418 16.5348 22.4671C16.801 22.2773 16.8629 21.907 16.6726 21.6408L14.6972 18.8752L16.6534 16.4299C16.8576 16.1742 16.816 15.8015 16.5608 15.5967ZM8.48737 9.54148H10.265C11.2453 9.54148 12.0426 10.3389 12.0426 11.3191C12.0426 12.2994 11.2453 13.0968 10.265 13.0968H8.48737V9.54148Z" fill="white" stroke="white" stroke-width="0.545146"/>
<path d="M24.0429 7.07289H17.5618C17.0501 7.07289 16.636 6.65879 16.636 6.14703V-0.333984H18.6541C19.381 -0.333984 20.0935 -0.0392524 20.6071 0.475217L23.2345 3.10361C23.7481 3.619 24.0429 4.32963 24.0429 5.05477V7.07289Z" fill="#9BB6FF"/>
<path d="M27.5408 23.3562L20.9332 19.7687C20.6914 19.6374 20.3889 19.727 20.2576 19.9689L17.7316 24.6214C16.6114 26.6846 17.3786 29.2745 19.4418 30.3946C21.505 31.5148 24.0948 30.7476 25.215 28.6844L27.741 24.0319C27.8723 23.79 27.7827 23.4875 27.5408 23.3562Z" fill="#F3BB93"/>
<path d="M30.607 16.1387C30.284 15.0482 29.5558 14.1488 28.5564 13.6063C26.4932 12.4861 23.9034 13.2533 22.7832 15.3165L20.2572 19.969L27.7407 24.032L30.2667 19.3795C30.8092 18.3802 30.9301 17.2292 30.607 16.1387Z" fill="#70E3CE"/>
<path d="M27.5408 23.3561L24.237 21.5623L19.4418 30.3945C21.505 31.5147 24.0948 30.7474 25.215 28.6843L27.741 24.0317C27.8723 23.7899 27.7827 23.4874 27.5408 23.3561Z" fill="#DC9868"/>
<path d="M27.7412 24.0318L30.2672 19.3792C30.8097 18.3799 30.9307 17.229 30.6076 16.1385C30.2846 15.048 29.5563 14.1486 28.5569 13.606L23.9994 22.0003L27.7412 24.0318Z" fill="#5AD3C0"/>
</g>
</svg>
