<svg width="30" height="30" viewBox="0 0 30 30" fill="none" xmlns="http://www.w3.org/2000/svg">
<mask id="mask0" mask-type="alpha" maskUnits="userSpaceOnUse" x="0" y="0" width="30" height="30">
<rect width="30" height="30" fill="#C4C4C4"/>
</mask>
<g mask="url(#mask0)">
<path d="M14.6008 0.691409L1.94169 6.80271C1.78295 6.87935 1.68213 7.04003 1.68213 7.21627V22.254C1.68213 22.4302 1.78301 22.5909 1.94169 22.6675L14.6008 28.7788C14.8531 28.9006 15.1471 28.9006 15.3994 28.7788L28.0585 22.6675C28.2172 22.5909 28.3181 22.4302 28.3181 22.254V7.21627C28.3181 7.04003 28.2172 6.87935 28.0585 6.80271L15.3994 0.691409C15.1471 0.56966 14.8531 0.56966 14.6008 0.691409Z" fill="#E6C2A7"/>
<path d="M1.75849 6.96484C1.71023 7.03833 1.68213 7.12486 1.68213 7.21624V22.2539C1.68213 22.4302 1.78301 22.5908 1.94169 22.6675L14.6008 28.7787C14.7269 28.8396 14.8635 28.8701 15.0001 28.8701V13.3574L1.75849 6.96484Z" fill="#E9CEBA"/>
<path d="M28.2416 6.96484C28.2899 7.03833 28.318 7.12486 28.318 7.21624V22.2539C28.318 22.4302 28.2171 22.5908 28.0584 22.6675L15.3993 28.7787C15.2732 28.8396 15.1366 28.8701 15 28.8701V13.3574L28.2416 6.96484Z" fill="#C79978"/>
<path d="M23.7544 9.12356L10.4662 2.7041L6.96338 4.40196L20.2813 10.8314L23.7544 9.12356Z" fill="white"/>
<path d="M20.2812 10.8318V15.8125C20.2812 15.9818 20.4582 16.0929 20.6107 16.0193L23.4947 14.6271C23.6535 14.5504 23.7543 14.3898 23.7543 14.2135V9.12402L20.2812 10.8318Z" fill="#E8E8E8"/>
</g>
</svg>
