<svg width="30" height="30" viewBox="0 0 30 30" fill="none" xmlns="http://www.w3.org/2000/svg">
<mask id="mask0" mask-type="alpha" maskUnits="userSpaceOnUse" x="0" y="0" width="30" height="30">
<rect width="30" height="30" fill="#C4C4C4"/>
</mask>
<g mask="url(#mask0)">
<path d="M3.40907 5H26.5909C28.4737 5 30 6.52629 30 8.40907V22.0454C30 23.9282 28.4737 25.4545 26.5909 25.4545H3.40907C1.52629 25.4546 0 23.9283 0 22.0454V8.40907C0 6.52629 1.52629 5 3.40907 5Z" fill="#567FEA"/>
<path d="M10.2274 22.0456C13.993 22.0456 17.0456 18.993 17.0456 15.2274C17.0456 11.4618 13.993 8.40918 10.2274 8.40918C6.4618 8.40918 3.40918 11.4618 3.40918 15.2274C3.40918 18.993 6.4618 22.0456 10.2274 22.0456Z" fill="#567FEA"/>
<path d="M10.2273 22.7271C6.08517 22.7271 2.72729 19.3692 2.72729 15.2271C2.72729 11.085 6.08517 7.72705 10.2273 7.72705C14.3694 7.72705 17.7273 11.0849 17.7273 15.227C17.7228 19.3674 14.3675 22.7225 10.2273 22.7271ZM10.2273 9.09073C6.83828 9.09073 4.09091 11.8381 4.09091 15.2271C4.09091 18.6161 6.83828 21.3635 10.2273 21.3635C13.6163 21.3635 16.3636 18.6161 16.3636 15.2271C16.3636 11.8381 13.6163 9.09073 10.2273 9.09073Z" fill="#F6F6F6"/>
<path d="M10.2273 16.5908C11.7335 16.5908 12.9546 15.3698 12.9546 13.8635C12.9546 12.3573 11.7335 11.1362 10.2273 11.1362C8.72105 11.1362 7.5 12.3573 7.5 13.8635C7.5 15.3698 8.72105 16.5908 10.2273 16.5908Z" fill="white"/>
<path d="M10.2274 22.0453C12.0341 22.0473 13.7671 21.3299 15.0438 20.0517C14.1489 17.3913 11.2668 15.9601 8.60633 16.855C7.09941 17.3619 5.91656 18.5448 5.40967 20.0517C6.68667 21.3303 8.42032 22.0477 10.2274 22.0453Z" fill="white"/>
<path d="M26.5909 11.8182H19.7727C19.3961 11.8182 19.0908 11.5129 19.0908 11.1364C19.0908 10.7598 19.3961 10.4546 19.7727 10.4546H26.5909C26.9674 10.4546 27.2727 10.7599 27.2727 11.1364C27.2727 11.513 26.9674 11.8182 26.5909 11.8182Z" fill="white"/>
<path d="M26.5909 15.909H19.7727C19.3961 15.909 19.0908 15.6037 19.0908 15.2272C19.0908 14.8506 19.3961 14.5454 19.7727 14.5454H26.5909C26.9674 14.5454 27.2727 14.8507 27.2727 15.2273C27.2727 15.6038 26.9674 15.909 26.5909 15.909Z" fill="white"/>
<path d="M26.5909 19.9999H19.7727C19.3961 19.9999 19.0908 19.6946 19.0908 19.3181C19.0908 18.9415 19.3961 18.6362 19.7727 18.6362H26.5909C26.9674 18.6362 27.2727 18.9415 27.2727 19.3181C27.2727 19.6947 26.9674 19.9999 26.5909 19.9999Z" fill="white"/>
</g>
</svg>
