<svg width="24" height="24" viewBox="0 0 24 24" fill="none" xmlns="http://www.w3.org/2000/svg">
<circle cx="12" cy="12" r="12" fill="#567FEA"/>
<path d="M16.4165 15.1597L14.0744 13.9889C13.8536 13.8783 13.7163 13.6562 13.7163 13.409V12.5802C13.7724 12.5115 13.8315 12.4333 13.8925 12.347C14.1963 11.918 14.4397 11.4404 14.6167 10.9253C14.9627 10.7667 15.1872 10.4247 15.1872 10.0386V9.05792C15.1872 8.82183 15.099 8.5931 14.9421 8.41437V7.11036C14.9558 6.97552 15.0097 6.17286 14.4292 5.51068C13.9256 4.93627 13.1085 4.64502 12.0001 4.64502C10.8918 4.64502 10.0746 4.93627 9.57108 5.51044C8.99054 6.17262 9.04447 6.97552 9.0582 7.11036V8.41437C8.9013 8.5931 8.81304 8.82183 8.81304 9.05792V10.0386C8.81304 10.3369 8.94861 10.6152 9.18005 10.8008C9.40461 11.69 9.87459 12.36 10.0388 12.575V13.3862C10.0388 13.6236 9.9094 13.8413 9.70126 13.955L7.51418 15.148C6.80296 15.5361 6.36143 16.2799 6.36143 17.0899V17.8837C6.36143 19.0473 10.0499 19.3547 12.0001 19.3547C13.9504 19.3547 17.6388 19.0473 17.6388 17.8837V17.1377C17.6388 16.2948 17.1703 15.5368 16.4165 15.1597Z" fill="white"/>
</svg>
